<?xml version="1.0" encoding="UTF-8" standalone="no"?><!DOCTYPE svg PUBLIC "-//W3C//DTD SVG 1.1//EN" "http://www.w3.org/Graphics/SVG/1.1/DTD/svg11.dtd"><svg width="100%" height="100%" viewBox="0 0 3142 3142" version="1.1" xmlns="http://www.w3.org/2000/svg" xmlns:xlink="http://www.w3.org/1999/xlink" xml:space="preserve" xmlns:serif="http://www.serif.com/" style="fill-rule:evenodd;clip-rule:evenodd;stroke-linejoin:round;stroke-miterlimit:2;"><rect id="Mesa-de-trabajo2" serif:id="Mesa de trabajo2" x="0" y="0" width="3141.67" height="3141.67" style="fill:none;"/><g><path d="M786.599,2000.86l-43.711,-0c-19.253,-0 -27.266,-14.037 -27.266,-27.664c0,-14.036 10.013,-27.674 27.266,-27.674l147.58,-0c17.241,-0 27.277,13.638 27.277,27.674c-0,13.627 -8.024,27.664 -27.277,27.664l-43.712,-0l0,201.327c0,20.06 -12.831,31.289 -30.084,31.289c-17.23,0 -30.073,-11.229 -30.073,-31.289l0,-201.327Z" style="fill:#6b6b6b;fill-rule:nonzero;"/><path d="M930.96,1974.39c0,-20.048 12.832,-31.289 30.073,-31.289c17.253,-0 30.084,11.241 30.084,31.289l0,227.797c0,20.049 -12.831,31.278 -30.084,31.278c-17.241,-0 -30.073,-11.229 -30.073,-31.278l0,-227.797Z" style="fill:#6b6b6b;fill-rule:nonzero;"/><path d="M1027.21,1980.41c0,-20.06 10.024,-34.892 31.278,-34.892l99.47,0c19.242,0 28.459,13.639 28.459,27.675c-0,13.627 -9.615,27.663 -28.459,27.663l-70.591,0l0,58.555l65.772,0c19.651,0 29.277,13.639 29.277,27.675c0,13.627 -10.024,27.663 -29.277,27.663l-65.772,0l0,60.965l74.194,-0c19.253,-0 28.47,13.638 28.47,27.663c0,13.65 -9.615,27.686 -28.47,27.686l-103.471,0c-17.639,0 -30.88,-12.036 -30.88,-30.084l0,-220.569Z" style="fill:#6b6b6b;fill-rule:nonzero;"/><path d="M1273.03,2071.85l41.313,-0c22.06,-0 37.302,-13.241 37.302,-35.699c-0,-22.856 -15.242,-35.29 -37.302,-35.29l-41.313,0l-0,70.989Zm-60.158,-95.049c0,-19.253 10.832,-31.29 30.88,-31.29l70.591,0c61.76,0 99.857,27.675 99.857,90.64c-0,44.12 -33.278,69.386 -74.182,75.807l68.169,72.977c5.615,6.024 8.013,12.037 8.013,17.651c-0,15.639 -12.422,30.88 -30.073,30.88c-7.217,-0 -16.844,-2.807 -23.253,-10.422l-89.037,-107.892l-0.807,-0l-0,87.036c-0,20.049 -12.832,31.278 -30.073,31.278c-17.253,-0 -30.085,-11.229 -30.085,-31.278l0,-225.387Z" style="fill:#6b6b6b;fill-rule:nonzero;"/><path d="M1496,2071.85l41.313,-0c22.061,-0 37.302,-13.241 37.302,-35.699c-0,-22.856 -15.241,-35.29 -37.302,-35.29l-41.313,0l-0,70.989Zm-60.157,-95.049c-0,-19.253 10.831,-31.29 30.88,-31.29l70.59,0c61.76,0 99.857,27.675 99.857,90.64c-0,44.12 -33.278,69.386 -74.182,75.807l68.17,72.977c5.614,6.024 8.012,12.037 8.012,17.651c0,15.639 -12.422,30.88 -30.073,30.88c-7.217,-0 -16.843,-2.807 -23.253,-10.422l-89.037,-107.892l-0.807,-0l-0,87.036c-0,20.049 -12.832,31.278 -30.073,31.278c-17.253,-0 -30.084,-11.229 -30.084,-31.278l-0,-225.387Z" style="fill:#6b6b6b;fill-rule:nonzero;"/><path d="M1729.39,2119.58l76.205,0l-37.302,-116.302l-0.795,-0l-38.108,116.302Zm-4.41,-145.579c6.819,-18.446 22.458,-33.29 42.916,-33.29c21.241,0 36.096,14.036 42.904,33.29l78.615,218.159c2.398,6.421 3.205,12.036 3.205,14.843c-0,15.65 -12.843,26.47 -27.675,26.47c-16.843,0 -25.265,-8.831 -29.277,-20.856l-12.025,-37.699l-111.506,0l-12.025,37.302c-4.012,12.422 -12.422,21.253 -28.879,21.253c-16.037,0 -29.676,-12.036 -29.676,-28.072c0,-6.422 2.012,-11.23 2.808,-13.241l80.615,-218.159Z" style="fill:#6b6b6b;fill-rule:nonzero;"/><path d="M1911.46,1974.39c-0,-20.048 12.831,-31.289 30.073,-31.289c17.253,-0 30.084,11.241 30.084,31.289l0,201.327l71.386,0c20.446,0 29.278,15.241 28.88,28.88c-0.807,13.229 -11.229,26.458 -28.88,26.458l-100.266,0c-19.65,0 -31.277,-12.831 -31.277,-32.88l-0,-223.785Z" style="fill:#6b6b6b;fill-rule:nonzero;"/><path d="M2085.89,2000.86l-43.711,-0c-19.253,-0 -27.266,-14.037 -27.266,-27.664c0,-14.036 10.013,-27.674 27.266,-27.674l147.58,-0c17.241,-0 27.277,13.638 27.277,27.674c-0,13.627 -8.024,27.664 -27.277,27.664l-43.712,-0l0,201.327c0,20.06 -12.831,31.289 -30.084,31.289c-17.23,0 -30.073,-11.229 -30.073,-31.289l-0,-201.327Z" style="fill:#6b6b6b;fill-rule:nonzero;"/><path d="M2263.95,2119.58l76.206,0l-37.302,-116.302l-0.795,-0l-38.109,116.302Zm-4.409,-145.579c6.819,-18.446 22.458,-33.29 42.916,-33.29c21.241,0 36.096,14.036 42.904,33.29l78.615,218.159c2.398,6.421 3.205,12.036 3.205,14.843c-0,15.65 -12.843,26.47 -27.675,26.47c-16.844,0 -25.265,-8.831 -29.278,-20.856l-12.024,-37.699l-111.507,0l-12.024,37.302c-4.012,12.422 -12.422,21.253 -28.88,21.253c-16.036,0 -29.675,-12.036 -29.675,-28.072c0,-6.422 2.012,-11.23 2.808,-13.241l80.615,-218.159Z" style="fill:#6b6b6b;fill-rule:nonzero;"/><path d="M587.466,1865.55c-39.442,-2.222 -93.271,2.948 -147.276,-4.737c-146.749,-20.891 -262.326,-90.487 -340.286,-216.498c-116.033,-187.548 -98.699,-437.792 71.983,-597.794c91.949,-86.206 201.245,-128.35 327.174,-134.912c76.697,-3.989 152.972,-0.515 229.411,0.795c67.223,1.146 113.156,42.928 117.847,106.512c4.351,58.824 -39.699,109.378 -103.88,117.706c-83.154,10.796 -166.787,2.679 -250.174,5.077c-82.311,2.362 -148.399,35.897 -194.403,103.798c-53.747,79.328 -59.946,166.564 -20.843,251.776c41.605,90.639 119.191,133.848 218.931,139.24c74.567,4.035 149.159,3.942 223.75,5.416c68.52,1.356 112.571,33.769 122.981,87.317c14.107,72.451 -34.038,133.789 -108.196,136.058c-44.156,1.346 -88.394,0.246 -147.019,0.246" style="fill:#519242;fill-rule:nonzero;"/><path d="M1413.39,912.831c49.746,0.106 83.048,25.722 104.231,68.544c60.379,121.987 120.337,244.162 180.378,366.313c43.629,88.767 85.446,178.483 131.496,265.976c19.979,37.944 45.887,72.801 56.11,115.308c10.773,44.775 -8.573,94.055 -44.576,115.553c-50.835,30.354 -100.348,28.436 -139.416,-5.275c-15.849,-13.685 -28.189,-30.119 -37.301,-48.741c-90.441,-184.741 -180.753,-369.552 -270.994,-554.375c-27.921,-57.174 -57.128,-113.776 -82.908,-171.898c-31.512,-71.035 24.376,-151.65 102.98,-151.405" style="fill:#feb308;fill-rule:nonzero;"/><path d="M1804.45,1069.82c-5.381,-16.223 -9.101,-31.804 -8.375,-43.442c0.409,-60.075 24.002,-88.768 85.703,-109.401c40.343,-13.487 86.697,-0 113.589,35.161c37.874,49.536 59.081,108.231 86.522,163.371c86.03,172.81 170.424,346.427 255.495,519.717c9.486,19.346 19.019,38.67 28.868,57.829c29.605,57.572 12.446,126.654 -38.623,154.832c-63.374,34.974 -121.987,20.481 -156.528,-44.963c-51.665,-97.88 -99.295,-197.888 -148.352,-297.125l-218.299,-435.979Z" style="fill:#feb308;fill-rule:nonzero;"/><path d="M1053.11,1865.3c-83.235,0.315 -137.93,-79.762 -103.459,-155.113c44.753,-97.821 91.903,-194.566 139.076,-291.265c22.084,-45.267 74.018,-75.995 113.133,-69.901c51.841,8.095 92.862,49.654 103.132,103.518c3.731,19.557 -2.106,36.916 -10.188,53.782c-46.461,97.061 -92.85,194.157 -140.036,290.879c-21.335,43.747 -58.929,67.936 -101.658,68.1" style="fill:#feb308;fill-rule:nonzero;"/><path d="M3115.53,1376.55c-6.34,162.376 -64.287,299.745 -199.55,396.981c-73.842,53.093 -157.557,83.189 -248.606,91.248c-33.476,2.959 -64.52,-7.182 -92.897,-23.277c-39.991,-22.657 -56.531,-69.199 -44.541,-117.636c11.451,-46.343 51.805,-78.416 102.687,-82.907c73.304,-6.469 139.696,-27.161 191.01,-85.06c39.583,-44.671 61.795,-94.804 63.082,-154.119c0.62,-29.371 -0.597,-58.625 7.883,-87.469c15.85,-53.783 63.211,-89.096 115.706,-84.744c55.502,4.608 100.407,49.513 105.05,105.833c1.135,13.627 0.176,27.429 0.176,41.15" style="fill:#2ba9f5;fill-rule:nonzero;"/><path d="M2825.33,1135.28c-42.132,-1.976 -101.026,4.586 -159.686,-3.953c-64.064,-9.311 -100.219,-52.238 -97.611,-117.718c2.199,-55.455 46.858,-99.95 106.477,-101.201c108.676,-2.281 217.399,-8.06 326.11,-0.328c66.251,4.714 105.705,42.004 109.448,104.184c3.603,60.123 -33.629,104.126 -97.751,115.426c-7.72,1.356 -15.487,3.38 -23.242,3.427c-49.033,0.316 -98.09,0.163 -163.745,0.163" style="fill:#2ba9f5;fill-rule:nonzero;"/></g></svg>